<svg width="133" height="56" viewBox="0 0 133 56" fill="none" xmlns="http://www.w3.org/2000/svg">
<path d="M30.5978 21.3C30.0105 20.5846 29.3177 19.9795 28.6705 19.3708C27.0175 17.9789 25.1955 17.0334 23.6045 15.5602C19.9018 12.1474 18.6399 6.11867 20.4118 1.26753C18.2969 2.02502 16.5166 3.49306 15.0203 5.06518C9.56192 10.8019 8.01595 20.265 11.4616 27.9985C11.5738 28.2438 11.6861 28.489 11.7136 28.8175C11.7602 29.3735 11.4609 29.9067 11.0224 30.1459C10.5197 30.4413 9.96041 30.3342 9.4938 29.9652C9.35446 29.8556 9.23415 29.7188 9.13894 29.5616C6.26253 26.1578 5.41848 21.0109 6.80214 16.7257C3.28664 20.4723 1.70111 26.4531 2.45668 31.9125C2.69921 33.1648 2.94174 34.4171 3.43479 35.6491C3.8807 37.1392 4.62268 38.6053 5.41817 39.8889C8.24423 44.0601 12.7658 46.8465 17.3966 47.1052C22.3277 47.3903 27.4606 45.9799 30.8824 41.9356C34.6988 37.4013 35.5931 30.5609 32.9695 24.9739L32.6183 24.341C32.0427 23.2176 30.5978 21.3 30.5978 21.3ZM24.7349 37.8061C24.148 38.4645 23.1554 39.2069 22.3566 39.5264C19.8905 40.745 17.2211 39.5378 15.5781 37.9925C18.2291 37.0641 19.6598 34.7086 19.9496 32.4207C20.1674 30.3676 19.2989 28.7592 18.8397 26.8376C18.4097 24.9899 18.3219 23.3942 18.7907 21.6005C19.3039 22.5255 19.8399 23.4486 20.45 24.1622C22.4155 26.5462 25.2644 27.4335 26.1446 30.8219C26.2653 31.1683 26.3405 31.5183 26.3723 31.8974C26.6143 33.9639 25.9849 36.3049 24.7349 37.8061Z" fill="white"/>
<path d="M31.2 18.6H41.36C43.84 18.6 45.88 19.0933 47.48 20.08C49.08 21.0667 50.2667 22.3867 51.04 24.04C51.84 25.6933 52.24 27.56 52.24 29.64C52.24 32.1467 51.8133 34.4533 50.96 36.56C50.1067 38.6667 48.92 40.5067 47.4 42.08C45.88 43.6533 44.08 44.8667 42 45.72C39.9467 46.5733 37.72 47 35.32 47H25.16L31.2 18.6ZM36.52 41.24C37.8533 41.24 39.0667 40.96 40.16 40.4C41.28 39.8133 42.2267 39.0267 43 38.04C43.7733 37.0533 44.3733 35.92 44.8 34.64C45.2267 33.36 45.44 32.0133 45.44 30.6C45.44 29.3467 45.24 28.2533 44.84 27.32C44.4667 26.3867 43.88 25.6667 43.08 25.16C42.28 24.6267 41.2933 24.36 40.12 24.36H36.52L32.92 41.24H36.52ZM52.8944 47L58.9344 18.6H71.1344C72.6277 18.6 73.8944 18.9867 74.9344 19.76C76.001 20.5333 76.801 21.5333 77.3344 22.76C77.8944 23.96 78.1744 25.24 78.1744 26.6C78.1744 27.5867 78.0277 28.56 77.7344 29.52C77.441 30.48 77.0144 31.4 76.4544 32.28C75.8944 33.16 75.2277 33.96 74.4544 34.68C73.7077 35.3733 72.881 35.96 71.9744 36.44L75.6144 47H68.2144L65.0944 37.84H61.3744L59.4544 47H52.8944ZM68.0544 32.12C68.4277 32.12 68.8144 32 69.2144 31.76C69.6144 31.4933 69.9744 31.1467 70.2944 30.72C70.641 30.2667 70.9077 29.7467 71.0944 29.16C71.3077 28.5733 71.4144 27.9467 71.4144 27.28C71.4144 26.6933 71.321 26.1867 71.1344 25.76C70.9744 25.3067 70.7477 24.96 70.4544 24.72C70.161 24.48 69.841 24.36 69.4944 24.36H64.2544L62.6144 32.12H68.0544ZM90.3994 47.24C88.666 47.24 87.1327 46.92 85.7994 46.28C84.466 45.6133 83.346 44.7333 82.4394 43.64C81.5327 42.52 80.8394 41.2533 80.3594 39.84C79.906 38.4 79.6794 36.9067 79.6794 35.36C79.6794 33.6533 79.9727 31.9733 80.5594 30.32C81.146 28.6667 81.9727 27.12 83.0394 25.68C84.106 24.24 85.346 22.9867 86.7594 21.92C88.1994 20.8267 89.7594 19.9733 91.4394 19.36C93.1194 18.7467 94.8527 18.44 96.6394 18.44C98.346 18.44 99.866 18.7733 101.199 19.44C102.533 20.08 103.653 20.96 104.559 22.08C105.466 23.2 106.146 24.4667 106.599 25.88C107.053 27.2933 107.279 28.7733 107.279 30.32C107.279 32.0267 106.986 33.7067 106.399 35.36C105.813 36.9867 104.986 38.52 103.919 39.96C102.853 41.3733 101.613 42.6267 100.199 43.72C98.786 44.8133 97.2394 45.68 95.5594 46.32C93.906 46.9333 92.186 47.24 90.3994 47.24ZM91.6794 41.4C93.066 41.4 94.306 41.08 95.3994 40.44C96.4927 39.7733 97.426 38.92 98.1994 37.88C98.9727 36.8133 99.5594 35.6667 99.9594 34.44C100.359 33.1867 100.559 31.96 100.559 30.76C100.559 29.6133 100.373 28.5467 99.9994 27.56C99.626 26.5733 99.0527 25.7867 98.2794 25.2C97.506 24.5867 96.506 24.28 95.2794 24.28C93.9194 24.28 92.6927 24.6 91.5994 25.24C90.506 25.88 89.5727 26.72 88.7994 27.76C88.026 28.8 87.426 29.9467 86.9994 31.2C86.5994 32.4267 86.3994 33.64 86.3994 34.84C86.3994 36.0133 86.586 37.0933 86.9594 38.08C87.3327 39.0667 87.906 39.8667 88.6794 40.48C89.4794 41.0933 90.4794 41.4 91.6794 41.4ZM113.895 18.6H125.455C126.922 18.6 128.175 18.9867 129.215 19.76C130.282 20.5333 131.095 21.5333 131.655 22.76C132.215 23.96 132.495 25.24 132.495 26.6C132.495 27.96 132.202 29.3067 131.615 30.64C131.055 31.9733 130.269 33.1867 129.255 34.28C128.242 35.3467 127.069 36.2133 125.735 36.88C124.429 37.52 123.029 37.84 121.535 37.84H116.335L114.415 47H107.855L113.895 18.6ZM122.335 32.12C122.735 32.12 123.135 32 123.535 31.76C123.935 31.52 124.309 31.1867 124.655 30.76C125.002 30.3333 125.269 29.8133 125.455 29.2C125.669 28.5867 125.775 27.9067 125.775 27.16C125.775 26.52 125.682 26 125.495 25.6C125.309 25.1733 125.055 24.8667 124.735 24.68C124.442 24.4667 124.122 24.36 123.775 24.36H119.215L117.575 32.12H122.335Z" fill="white"/>
</svg>
