<svg width="20" height="24" viewBox="0 0 20 24" fill="none" xmlns="http://www.w3.org/2000/svg">
<path d="M10 0L19.1297 1.992C19.6382 2.104 20 2.5456 20 3.0576V13.952C20 15.0293 19.7292 16.0899 19.2115 17.0397C18.6938 17.9895 17.9452 18.7992 17.0323 19.3968L10 24L2.96773 19.3968C2.05479 18.7992 1.30625 17.9895 0.788542 17.0397C0.270834 16.0899 -2.64087e-05 15.0293 1.93121e-09 13.952V3.056C1.93121e-09 2.5456 0.361799 2.1024 0.870274 1.992L10 0ZM10 2.2352L2.22132 3.9312V13.952C2.22132 15.4112 2.96447 16.7728 4.20143 17.5824L10 21.376L15.7986 17.5808C16.4075 17.182 16.9067 16.6419 17.2521 16.0084C17.5975 15.3748 17.7784 14.6674 17.7787 13.9488V3.9344L10 2.2352ZM10 6.544C10.4888 6.54441 10.9639 6.70301 11.3517 6.99523C11.7394 7.28746 12.0183 7.69702 12.145 8.16052C12.2718 8.62402 12.2394 9.11562 12.0528 9.55922C11.8663 10.0028 11.536 10.3737 11.1131 10.6144L11.1115 15.2704H8.88853V10.6144C8.46611 10.3738 8.13622 10.0033 7.94987 9.56018C7.76353 9.11703 7.73112 8.62594 7.85766 8.16289C7.9842 7.69984 8.26264 7.29063 8.6499 6.99857C9.03717 6.70651 9.51167 6.54787 10 6.5472V6.544Z" fill="white"/>
</svg>
