<svg width="16" height="24" viewBox="0 0 16 24" fill="none" xmlns="http://www.w3.org/2000/svg">
<path d="M13.841 12.2373C13.122 11.6778 12.043 11.2309 10.604 10.8967L9.5 10.6396V5.98668L9.6495 6.04688C10.5865 6.51513 11.09 7.40132 11.159 8.38816H14.917C14.8485 6.41447 14.1095 4.95493 12.7 3.92368C11.7635 3.23832 10.6955 2.7977 9.5 2.57566V0H6V2.49671C4.3815 2.69408 3.098 3.20822 2.1555 4.04408C0.9215 5.13849 0.304667 6.5125 0.305 8.16612C0.305 9.97862 0.9355 11.3109 2.1965 12.1628C2.9025 12.6459 4.175 13.0944 6 13.5099V18.5507C5.3345 18.3696 4.813 18.0715 4.4455 17.6408C4.091 17.2224 3.8535 16.7763 3.7325 15.7895H0C0 17.7632 0.7055 19.1793 2.117 20.2776C3.136 21.0701 4.433 21.5516 6 21.7604V23.6842H9.5V21.7929C11.1665 21.5961 12.512 21.0711 13.531 20.212C14.8527 19.0969 15.5135 17.6957 15.5135 16.0086C15.5135 14.3632 14.956 13.1061 13.841 12.2373ZM4.834 9.3671C4.22667 9.04112 3.923 8.5477 3.923 7.88684C3.923 7.16842 4.231 6.60543 4.847 6.20477C5.172 5.99309 5.559 5.83914 6 5.7375V9.79539C5.4575 9.63947 5.066 9.49638 4.834 9.3671ZM10.0715 18.4495C9.88419 18.5109 9.69335 18.5613 9.5 18.6005V14.3092C10.103 14.4855 10.5777 14.677 10.924 14.8836C11.47 15.2176 11.7435 15.6928 11.7435 16.3021C11.743 17.3462 11.1855 18.0651 10.0715 18.4495Z" fill="white"/>
</svg>
