<svg width="22" height="24" viewBox="0 0 22 24" fill="none" xmlns="http://www.w3.org/2000/svg">
<path d="M10.9818 10.8C10.7418 10.8 10.5071 10.8704 10.3075 11.0022C10.108 11.1341 9.95241 11.3215 9.86055 11.5408C9.76869 11.7601 9.74466 12.0013 9.79149 12.2341C9.83832 12.4669 9.9539 12.6807 10.1236 12.8485C10.2934 13.0164 10.5096 13.1306 10.745 13.1769C10.9804 13.2232 11.2245 13.1995 11.4462 13.1087C11.668 13.0178 11.8575 12.864 11.9909 12.6667C12.1242 12.4693 12.1954 12.2373 12.1954 12C12.1954 11.6817 12.0676 11.3765 11.84 11.1515C11.6124 10.9264 11.3037 10.8 10.9818 10.8ZM20.2296 12L20.3631 11.832C22.0015 9.6 22.3899 7.548 21.4918 6C20.5937 4.452 18.5791 3.768 15.8363 4.044H15.6179C14.5134 1.56 12.8751 0 10.9818 0C9.08854 0 7.45014 1.56 6.35787 4.08L6.12729 4.044C3.38449 3.768 1.36987 4.452 0.471783 6C-0.426301 7.548 -0.03794 9.6 1.60046 11.832L1.73396 12L1.60046 12.168C-0.03794 14.4 -0.426301 16.452 0.471783 18C1.27278 19.32 2.81408 20.016 4.91366 20.016C5.28988 20.016 5.67824 20.016 6.12729 19.956H6.34574C7.45014 22.44 9.08854 24 10.9818 24C12.8751 24 14.5135 22.44 15.6057 19.92H15.8242C16.2368 19.92 16.6252 19.98 17.0378 19.98C19.1859 19.98 20.7636 19.284 21.5282 17.964C22.4263 16.416 22.0379 14.364 20.3995 12.132L20.2296 12ZM2.57136 7.2C2.87477 6.672 3.78499 6.384 4.99861 6.384H5.59329C5.40382 7.12236 5.26195 7.87187 5.16852 8.628C4.55023 9.09044 3.96245 9.59146 3.40876 10.128C2.4864 8.928 2.21941 7.8 2.57136 7.2ZM2.57136 16.8C2.21941 16.2 2.57136 15.072 3.38449 13.836C3.93817 14.3725 4.52596 14.8736 5.14425 15.336C5.23717 16.0962 5.37904 16.8497 5.56902 17.592C4.06412 17.688 2.92331 17.4 2.57136 16.8ZM10.9818 2.4C11.6614 2.4 12.4746 3.192 13.1663 4.596C12.4251 4.80965 11.6959 5.06201 10.9818 5.352C10.2676 5.06201 9.53844 4.80965 8.79727 4.596C9.48903 3.192 10.3022 2.4 10.9818 2.4ZM10.9818 21.6C10.3022 21.6 9.48903 20.808 8.79727 19.404C9.53844 19.1903 10.2676 18.938 10.9818 18.648C11.6959 18.938 12.4251 19.1903 13.1663 19.404C12.4746 20.808 11.6614 21.6 10.9818 21.6ZM14.5377 14.028C13.9795 14.412 13.409 14.772 12.8022 15.12C12.1954 15.468 11.5886 15.78 10.9818 16.056C10.375 15.776 9.76817 15.464 9.16135 15.12C8.55454 14.772 7.94773 14.412 7.42587 14.028C7.34091 13.38 7.34091 12.708 7.34091 12C7.34091 11.292 7.34091 10.62 7.42587 9.972C7.98414 9.588 8.55454 9.228 9.16135 8.88C9.76817 8.532 10.375 8.22 10.9818 7.944C11.5886 8.224 12.1954 8.536 12.8022 8.88C13.409 9.228 14.0159 9.588 14.5377 9.972C14.5377 10.62 14.6227 11.292 14.6227 12C14.6227 12.708 14.6227 13.38 14.5377 14.028ZM19.3922 16.8C19.0403 17.4 17.8995 17.7 16.3946 17.592C16.5845 16.8497 16.7264 16.0962 16.8193 15.336C17.4376 14.8736 18.0254 14.3725 18.5791 13.836C19.4772 15.072 19.7442 16.2 19.3922 16.8ZM18.5791 10.164C18.0254 9.62746 17.4376 9.12644 16.8193 8.664C16.7259 7.90787 16.584 7.15836 16.3946 6.42H16.9893C18.2029 6.42 19.0888 6.708 19.4165 7.236C19.7442 7.764 19.4772 8.928 18.5791 10.164Z" fill="white"/>
</svg>
